<?xml version="1.0" encoding="UTF-8" standalone="no"?>
<svg width="74px" height="74px" viewBox="0 0 74 74" version="1.1" xmlns="http://www.w3.org/2000/svg" xmlns:xlink="http://www.w3.org/1999/xlink">
    <!-- Generator: Sketch 43.2 (39069) - http://www.bohemiancoding.com/sketch -->
    <title>Shape</title>
    <desc>Created with Sketch.</desc>
    <defs></defs>
    <g id="Page-1" stroke="none" stroke-width="1" fill="none" fill-rule="evenodd">
        <g id="Desktop-HD" transform="translate(-205.000000, -686.000000)" fill-rule="nonzero" fill="#FFFFFF">
            <path d="M241.6,686 C221.398701,686 205,702.398701 205,722.6 C205,742.801299 221.398701,759.2 241.6,759.2 C261.801299,759.2 278.2,742.801299 278.2,722.6 C278.2,702.398701 261.801299,686 241.6,686 Z M258.394805,725.214286 L233.994805,739.474026 C233.519481,739.790909 232.964935,739.87013 232.48961,739.87013 C232.014286,739.87013 231.45974,739.790909 230.984416,739.474026 C230.033766,738.998701 229.479221,737.968831 229.479221,736.85974 L229.479221,708.34026 C229.479221,707.231169 230.112987,706.201299 230.984416,705.725974 C231.935065,705.250649 233.123377,705.250649 233.994805,705.725974 L258.394805,719.985714 C259.345455,720.461039 259.9,721.490909 259.9,722.6 C259.9,723.709091 259.266234,724.738961 258.394805,725.214286 Z" id="Shape"></path>
        </g>
    </g>
</svg>